# xmcd CD database file
#
# Track frame offsets:
#	150
#	18500
#	40613
#
# Disc length: 780 seconds
#
# Revision: 0
# Processed by: cddbd v1.5.1PL0 Copyright (c) Steve Scherf et al.
# Submitted via: CDex 1.51
#
DISCID=18030a03
DTITLE=小野真弓 - アイノチカラ
DYEAR=2005
DGENRE=Pop
TTITLE0=アイノチカラ
TTITLE1=風の音
TTITLE2=海岸通
EXTD=YEAR: 2005/06/22
EXTT0=
EXTT1=
EXTT2=
PLAYORDER=
